<?xml version="1.0" standalone="no"?>
<!DOCTYPE svg PUBLIC "-//W3C//DTD SVG 20010904//EN"
 "http://www.w3.org/TR/2001/REC-SVG-20010904/DTD/svg10.dtd">
<svg version="1.0" xmlns="http://www.w3.org/2000/svg"
 width="327.000000pt" height="340.000000pt" viewBox="0 0 327.000000 340.000000"
 preserveAspectRatio="xMidYMid meet">

<g transform="translate(0.000000,340.000000) scale(0.100000,-0.100000)"
fill="#000000" stroke="none">
<path d="M0 1700 l0 -1700 1635 0 1635 0 0 1700 0 1700 -1635 0 -1635 0 0
-1700z m1350 1475 c0 -206 58 -320 215 -421 68 -43 79 -42 166 23 l64 48 -62
3 -63 3 0 39 0 40 95 0 94 0 16 30 c8 16 15 34 15 40 0 6 -58 10 -170 10
l-170 0 0 40 0 40 180 0 180 0 0 60 0 60 -220 0 -220 0 0 40 0 40 240 0 240 0
0 -175 c0 -159 -2 -180 -21 -217 -26 -51 -109 -140 -167 -180 l-43 -30 42 -30
c65 -47 125 -111 158 -169 29 -51 31 -60 30 -159 l0 -105 -14 52 c-35 130
-148 279 -255 337 l-50 27 -42 -25 c-24 -14 -56 -37 -73 -50 l-30 -25 53 -1
52 0 0 -40 0 -40 -88 0 -88 0 -23 -40 -22 -40 170 0 171 0 0 -40 0 -40 -189 0
-189 0 -10 -52 c-9 -48 -10 -41 -11 67 l-1 120 36 55 c44 68 105 132 161 169
l42 28 -60 42 c-65 46 -131 123 -160 186 -16 34 -19 67 -19 208 0 160 1 167
20 167 19 0 20 -7 20 -95z m-322 -416 c2 -26 -2 -38 -12 -42 -28 -11 -46 4
-46 37 0 39 7 48 35 44 15 -2 21 -12 23 -39z m762 -639 l0 -40 -202 0 c-112 0
-220 3 -240 6 -35 6 -38 9 -38 40 l0 34 240 0 240 0 0 -40z m508 3 c-3 -35 -6
-38 -33 -38 -27 0 -30 3 -33 38 -3 37 -3 37 33 37 36 0 36 0 33 -37z m-777
-156 l189 6 0 -48 0 -48 -170 6 c-93 3 -170 2 -170 -1 0 -4 11 -24 25 -44 l24
-36 86 5 85 6 0 -42 0 -41 -52 0 -53 -1 37 -33 c20 -18 53 -41 73 -52 l35 -19
48 25 c106 55 222 205 256 331 l15 54 0 -106 c1 -101 0 -107 -30 -155 -38 -60
-100 -126 -157 -166 l-42 -29 60 -46 c67 -50 117 -107 149 -170 19 -38 21 -59
21 -213 0 -160 -1 -170 -19 -170 -18 0 -19 10 -23 133 -3 121 -5 137 -32 190
-33 69 -110 148 -190 196 l-57 34 -69 -47 c-102 -70 -105 -76 -31 -76 l61 0 0
-40 0 -40 -96 0 -95 0 -15 -35 c-7 -19 -14 -37 -14 -40 0 -3 77 -5 170 -5
l170 0 0 -40 0 -40 -180 0 -180 0 0 -60 0 -60 220 0 220 0 0 -40 0 -40 -118 0
c-66 0 -174 3 -240 7 l-122 6 0 164 c0 156 1 166 26 215 30 60 109 146 170
186 l42 29 -59 43 c-63 46 -115 104 -154 172 -23 39 -25 53 -24 163 1 113 2
117 11 63 l10 -58 189 7z m-491 -477 c0 -38 -2 -40 -30 -40 -28 0 -30 2 -30
40 0 38 2 40 30 40 28 0 30 -2 30 -40z m-663 -888 c80 -42 118 -129 111 -257
-7 -132 -57 -207 -157 -235 -20 -5 -82 -10 -138 -10 l-103 0 0 266 0 266 123
-4 c101 -4 129 -8 164 -26z m487 -224 c43 -138 80 -257 83 -265 3 -9 -3 -13
-20 -13 -22 0 -28 8 -47 65 l-22 66 -121 -3 -121 -3 -20 -62 c-11 -35 -25 -63
-32 -63 -8 0 13 73 58 203 39 111 80 230 91 265 19 55 24 62 47 62 25 0 28 -8
104 -252z m558 242 c20 -6 48 -24 62 -40 50 -59 44 -177 -11 -220 -30 -24 -31
-18 21 -183 l25 -78 -27 3 c-24 3 -29 12 -61 110 l-34 108 -93 0 -94 0 0 -110
0 -110 -25 0 -25 0 0 265 0 265 113 0 c61 0 129 -5 149 -10z m319 -225 c44
-126 82 -237 85 -245 3 -8 35 62 72 160 l65 175 -26 73 -26 73 31 -3 c30 -3
31 -5 99 -203 38 -110 76 -220 85 -244 l17 -44 89 239 c49 131 94 243 99 248
26 28 11 -26 -78 -263 l-98 -261 -30 0 c-30 0 -30 0 -90 172 -57 166 -59 171
-71 143 -7 -17 -37 -94 -66 -172 -52 -141 -53 -143 -84 -143 -30 0 -30 1 -79
142 -26 79 -68 198 -91 266 l-44 123 31 -3 31 -3 79 -230z m859 -30 l0 -265
-25 0 -25 0 0 265 0 265 25 0 25 0 0 -265z m415 46 l150 -213 3 216 c2 183 5
216 17 216 13 0 15 -38 15 -266 0 -246 -1 -265 -17 -262 -10 2 -85 99 -168
217 l-150 213 -3 -216 c-1 -133 -6 -216 -12 -216 -6 0 -10 99 -10 266 0 208 3
265 13 262 6 -3 80 -100 162 -217z"/>
<path d="M130 366 l0 -246 78 0 c133 0 198 49 223 168 25 120 -9 241 -82 289
-37 24 -54 28 -131 31 l-88 4 0 -246z"/>
<path d="M677 430 c-31 -91 -57 -168 -57 -172 0 -5 50 -8 110 -8 61 0 110 3
110 8 0 4 -24 81 -53 172 l-53 165 -57 -165z"/>
<path d="M1200 475 l0 -135 78 0 c128 0 189 50 179 149 -9 87 -59 119 -184
120 l-73 1 0 -135z"/>
</g>
</svg>
