<?xml version="1.0" standalone="no"?>
<!DOCTYPE svg PUBLIC "-//W3C//DTD SVG 20010904//EN"
 "http://www.w3.org/TR/2001/REC-SVG-20010904/DTD/svg10.dtd">
<svg version="1.0" xmlns="http://www.w3.org/2000/svg"
 width="179.000000pt" height="262.000000pt" viewBox="0 0 179.000000 262.000000"
 preserveAspectRatio="xMidYMid meet">

<g transform="translate(0.000000,262.000000) scale(0.100000,-0.100000)"
fill="#000000" stroke="none">
<path d="M542 2333 c8 -197 27 -215 27 -25 1 134 -1 152 -15 152 -14 0 -16
-15 -12 -127z"/>
<path d="M1211 2298 c1 -156 2 -161 15 -118 18 58 16 271 -3 278 -10 3 -13
-33 -12 -160z"/>
<path d="M222 1955 c0 -16 2 -22 5 -12 2 9 2 23 0 30 -3 6 -5 -1 -5 -18z"/>
<path d="M542 1543 c-56 -145 -54 -321 6 -455 l20 -43 3 125 c2 69 2 194 -1
278 l-5 153 -23 -58z"/>
<path d="M1211 1320 l1 -285 20 45 c66 142 65 362 -2 488 l-19 37 0 -285z"/>
<path d="M221 694 c0 -11 3 -14 6 -6 3 7 2 16 -1 19 -3 4 -6 -2 -5 -13z"/>
<path d="M1211 343 c-1 -139 1 -163 14 -163 13 0 15 20 14 123 0 72 -6 138
-14 162 -12 37 -13 26 -14 -122z"/>
<path d="M551 433 c-6 -31 -11 -101 -11 -155 0 -80 3 -98 15 -98 13 0 15 24
15 155 0 85 -2 155 -4 155 -2 0 -8 -26 -15 -57z"/>
</g>
</svg>
